<svg width="1640" height="1062" viewBox="0 0 1640 1062" fill="none" xmlns="http://www.w3.org/2000/svg">
<path d="M1200.99 424.175C1199.85 424.562 1198.95 424.769 1197.34 425.214C1195.84 425.765 1195.06 426.077 1194.29 426.39C1194.29 426.39 1194.34 426.293 1193.79 426.269C1191.81 426.597 1190.38 426.949 1188.95 427.301C1188.95 427.301 1189 427.347 1188.57 427.308C1187.04 427.593 1185.94 427.917 1184.83 428.241C1184.83 428.241 1184.83 428.102 1184.26 428.141C1182.9 428.511 1182.1 428.842 1181.31 429.174C1181.31 429.174 1181.14 428.831 1180.49 428.833C1178.99 428.99 1178.14 429.146 1176.96 429.304C1176.03 429.483 1175.43 429.66 1174.41 429.887C1172.68 430.302 1171.38 430.667 1170.11 431.053C1170.13 431.073 1170.16 431.023 1169.73 430.987C1168 431.285 1166.69 431.619 1165.4 431.977C1165.41 432 1165.42 431.947 1164.91 431.86C1159.09 432.448 1153.79 433.122 1147.99 433.779C1137.75 434.492 1128.01 435.222 1117.73 435.916C1110.93 435.561 1104.68 435.168 1098.42 434.943C1087.04 434.534 1075.65 434.378 1064.28 433.845C1029.46 432.21 995.245 427.308 961.546 420.522C909.513 410.046 857.318 400.792 803.395 398.871C765.355 397.515 727.58 399.051 690.022 403.788C678.884 405.192 667.904 407.381 656.427 409.301C655.142 409.526 654.282 409.661 653.083 409.816C652.138 410.069 651.533 410.303 650.48 410.558C648.931 410.886 647.83 411.193 646.738 411.452C646.746 411.402 646.621 411.39 646.121 411.412C644.416 411.767 643.212 412.1 642.016 412.372C642.024 412.311 641.87 412.299 641.396 412.33C639.164 412.723 637.404 413.085 635.32 413.459C634.403 413.665 633.81 413.859 632.753 414.126C627.322 415.458 622.354 416.716 616.967 417.988C611.098 419.56 605.649 421.118 599.806 422.648C598.106 422.043 596.799 421.466 595.929 420.814C600.403 419.245 604.441 417.752 608.916 416.223C611.507 415.661 613.662 415.135 615.853 414.601C615.89 414.594 615.927 414.541 616.326 414.442C626.438 411.454 636.097 408.448 645.872 405.7C676.452 397.102 707.874 391.243 740.118 388.284C754.897 386.928 769.743 386.028 785.04 384.937C799.937 384.92 814.353 384.887 829.327 384.967C833.607 385.238 837.33 385.388 841.051 385.557C868.729 386.814 896.019 390.049 922.868 395.538C964.805 404.112 1006.64 413.032 1048.74 421.069C1063.87 423.958 1079.66 424.716 1095.49 426.657C1096.96 426.994 1098.1 427.121 1099.74 427.3C1103.5 427.62 1106.76 427.885 1110.38 428.158C1111.25 428.137 1111.75 428.109 1112.75 428.121C1114.96 428.152 1116.66 428.141 1118.77 428.164C1120.01 428.199 1120.84 428.2 1122.18 428.251C1124.37 428.263 1126.06 428.227 1128.26 428.214C1131.15 428.229 1133.52 428.219 1136.39 428.255C1138.54 428.268 1140.19 428.236 1142.37 428.223C1154.94 427.342 1166.99 426.443 1179.04 425.544C1179.04 425.544 1178.98 425.633 1179.57 425.677C1182.35 425.353 1184.53 424.986 1186.72 424.618C1186.72 424.618 1186.67 424.577 1187.17 424.652C1191.69 424.071 1195.7 423.415 1199.71 422.759C1199.71 422.759 1199.63 422.78 1200.07 422.837C1201.65 422.93 1202.79 422.966 1203.93 423.003C1203.93 423.003 1203.84 423.199 1203.81 423.3C1202.94 423.6 1202.09 423.797 1200.99 424.175Z" fill="#111211"/>
<path d="M649.929 410.916C649.332 411.217 648.329 411.541 646.929 411.916C647.529 411.623 648.526 411.281 649.929 410.916Z" fill="#515151"/>
<path d="M645.929 411.916C645.333 412.216 644.325 412.538 642.929 412.916C643.532 412.626 644.524 412.282 645.929 411.916Z" fill="#515151"/>
<path d="M457.485 475.995C458.756 476.034 460.027 476.074 462.27 476.093C465.234 476.036 467.226 476.001 469.218 475.965C471.243 476.021 473.269 476.076 475.799 476.087C478.718 476.069 481.131 476.095 484.431 476.105C485.811 476.062 486.306 476.034 486.8 476.007C487.475 476.312 488.15 476.618 488.997 477.757C488.995 480.418 488.819 482.245 488.644 484.072C488.644 484.072 488.28 484.099 487.57 484.17C461.123 484.316 435.386 484.391 409.296 484.483C408.412 484.944 407.882 485.389 407.321 486.433C407.291 512.484 407.291 537.935 407.291 564.046C410.147 564.046 412.257 564.046 414.366 564.047C432.753 564.053 451.141 564.013 469.527 564.126C471.787 564.139 474.043 564.971 476.301 565.423C476.301 565.423 476.138 565.42 476.204 566.049C476.278 568.496 476.287 570.315 475.746 572.155C453.326 572.236 431.456 572.294 409.212 572.33C408.59 572.326 408.341 572.346 407.774 572.768C407.374 603.972 407.356 634.775 407.144 665.576C407.109 670.574 409.545 670.67 412.747 670.665C437.544 670.628 462.342 670.637 487.139 670.749C489.396 670.759 491.65 671.588 493.928 672.592C493.934 675.003 493.92 676.857 493.644 678.757C493.383 678.804 492.863 678.911 492.422 678.869C491.395 678.866 490.808 678.906 489.682 678.916C452.392 678.848 415.639 678.81 378.929 678.287C380.112 674.065 381.253 670.328 382.743 666.206C383.222 664.727 383.465 663.634 383.465 662.541C383.441 604.935 383.397 547.328 383.37 489.21C382.643 485.834 381.901 482.97 381.088 479.699C380.695 478.889 380.372 478.486 380.106 477.945C380.162 477.808 380.102 477.514 380.267 477.172C381.056 476.535 381.68 476.239 382.305 475.944C384.744 475.98 387.184 476.016 390.602 476.025C392.808 475.97 394.035 475.943 395.262 475.916C408.226 475.975 421.191 476.035 435.252 476.073C443.394 476.032 450.439 476.013 457.485 475.995Z" fill="#111211"/>
<path d="M488.969 483.916C488.855 482.384 488.998 480.666 489.212 478.438C489.283 477.929 489.713 477.919 489.929 477.916C489.838 479.851 489.533 481.79 488.969 483.916Z" fill="#515151"/>
<path d="M1143.92 678.94C1137.25 679.426 1130.39 680.691 1124.02 679.239C1112.43 676.601 1101.47 672.125 1093.81 660.417C1080.22 639.637 1066.11 619.296 1051.49 598.169C1041.83 597.411 1032.89 597.345 1023.95 597.06C1020.03 596.935 1019.62 599.484 1019.64 602.983C1019.74 623.496 1019.75 644.009 1019.79 664.522C1020.35 668.597 1020.91 672.673 1021.56 677.367C1012.28 677.367 1002.72 677.367 992.929 677.367C993.911 674.199 994.858 671.142 995.835 667.003C995.921 607.105 995.99 548.29 995.986 489.475C995.986 487.149 995.287 484.824 994.914 482.498C994.223 480.754 993.532 479.011 993.266 476.771C1007.72 476.156 1021.75 476.036 1035.79 475.916C1038.27 475.963 1040.76 476.011 1044.31 476.028C1057.93 477.416 1070.49 478.836 1083.04 480.257C1083.04 480.257 1083.23 480.296 1083.65 480.546C1085.25 481.246 1086.42 481.696 1087.59 482.146C1099.58 487.505 1110.74 494.225 1117.07 507.81C1126.49 528.032 1125.6 548.413 1114.16 566.685C1106.1 579.564 1093.18 586.058 1079.72 590.266C1077.78 590.87 1075.95 591.875 1073.96 592.741C1091.86 616.864 1109.21 640.401 1126.75 663.747C1130.11 668.218 1133.69 672.785 1139.71 673.047C1140.89 673.099 1142.01 675.128 1143.53 676.474C1143.92 677.299 1143.94 677.896 1143.92 678.94ZM1055.04 586.385C1071.82 584.523 1086.04 576.94 1092.89 558.845C1100.18 539.61 1099.6 519.888 1088.37 502.218C1080.48 489.795 1068.28 486.304 1054.58 484.333C1044.64 484.281 1034.71 484.301 1024.77 484.137C1021.54 484.084 1019.67 484.918 1019.68 489.207C1019.75 520.549 1019.65 551.89 1019.8 583.231C1019.81 584.737 1021.73 587.538 1022.74 587.528C1033.2 587.419 1043.66 586.856 1055.04 586.385Z" fill="#111211"/>
<path d="M1301.86 491.301C1301.86 491.301 1301.88 491.732 1302 492.29C1302.45 493.48 1302.76 494.112 1303.08 494.744C1303.08 494.744 1303.11 494.686 1303.13 494.987C1303.15 495.288 1303.32 495.871 1303.32 495.871C1317.18 529.98 1331.05 564.085 1344.9 598.201C1353.87 620.285 1362.77 642.4 1371.77 664.468C1373.61 668.99 1375.73 673.369 1376.93 678.064C1367.89 678.12 1359.63 677.926 1351.38 677.732C1351.38 677.732 1351.41 677.28 1351.37 676.637C1350.96 674.978 1350.59 673.963 1350.22 672.948C1350.22 672.948 1350.25 672.903 1350.17 672.47C1349.75 671.257 1349.42 670.476 1349.09 669.695C1341.33 650.353 1333.66 630.964 1325.68 611.742C1324.91 609.892 1322.2 607.964 1320.37 607.945C1296.63 607.694 1272.88 607.662 1249.13 608.006C1247.16 608.035 1244.3 610.713 1243.41 612.951C1238.42 625.433 1233.91 638.158 1229.03 651.575C1228.83 652.349 1228.74 652.998 1228.74 652.998C1228.74 652.998 1228.84 652.952 1228.58 653.261C1228.08 654.708 1227.83 655.847 1227.58 656.986C1227.58 656.986 1227.66 656.95 1227.37 657.161C1226.85 658.128 1226.62 658.883 1226.39 659.639C1226.39 659.639 1226.48 659.611 1226.26 659.856C1225.81 660.803 1225.58 661.505 1225.35 662.207C1225.35 662.207 1225.24 662.567 1224.98 663.116C1224.49 664.547 1224.26 665.428 1224.03 666.308C1224.03 666.308 1224.13 666.275 1223.89 666.509C1223.41 667.465 1223.17 668.187 1222.94 668.908C1222.94 668.908 1222.85 669.213 1222.59 669.777C1222.12 671.646 1221.91 672.95 1221.7 674.254C1221.7 674.254 1221.76 674.227 1221.45 674.405C1220.97 675.332 1220.81 676.08 1220.65 676.829C1215.99 682.22 1210.47 678.736 1204.93 679.534C1209.93 667.658 1214.78 656.693 1219.22 645.518C1239.97 593.229 1260.61 540.887 1281.25 488.543C1282.52 485.324 1283.44 481.927 1284.6 478.11C1284.9 477.416 1285.09 477.182 1285.78 476.597C1287.56 476.165 1288.8 476.04 1290.03 475.916C1291.3 475.979 1292.57 476.042 1294.6 476.337C1295.59 476.647 1295.81 476.725 1296.03 476.804C1296.03 476.804 1295.82 477.021 1295.9 477.577C1296.37 478.807 1296.76 479.481 1297.15 480.154C1297.15 480.154 1297.19 480.062 1297.24 480.425C1297.65 481.467 1298.01 482.146 1298.37 482.824C1298.37 482.824 1298.39 482.708 1298.4 483.095C1298.79 484.15 1299.16 484.817 1299.54 485.484C1299.54 485.484 1299.57 485.37 1299.57 485.754C1299.95 486.801 1300.33 487.463 1300.71 488.126C1300.71 488.126 1300.75 488.042 1300.75 488.475C1301.12 489.705 1301.49 490.503 1301.86 491.301ZM1248.89 598.004C1249.58 598.554 1250.27 599.582 1250.96 599.584C1273.03 599.665 1295.1 599.671 1317.17 599.538C1317.95 599.533 1318.72 597.991 1319.25 596.274C1307.52 567.26 1295.78 538.246 1283.39 507.597C1271.54 538.494 1260.29 567.858 1248.89 598.004Z" fill="#111211"/>
<path d="M406.959 486.916C407.243 501.706 407.537 517.09 407.734 532.477C407.827 539.738 407.958 547.013 407.658 554.261C407.402 560.429 409.356 562.879 415.063 562.782C434.618 562.449 454.179 562.564 474.288 562.47C475.169 563.131 475.501 563.832 475.929 564.916C473.764 564.85 471.505 564.025 469.243 564.011C450.833 563.899 432.423 563.939 414.013 563.933C411.901 563.932 409.789 563.933 406.929 563.933C406.929 538.022 406.929 512.766 406.959 486.916Z" fill="#676767"/>
<path d="M454.182 484.916C439.21 484.73 424.789 484.518 409.929 484.19C435.122 484.019 460.755 483.963 486.929 483.916C479.443 484.224 471.416 484.548 463.388 484.814C460.506 484.91 457.617 484.869 454.182 484.916Z" fill="#5F5F5F"/>
<path d="M1295.93 477.882C1295.83 478.044 1295.56 477.643 1294.93 476.152C1294.99 475.495 1295.39 476.248 1295.93 477.882Z" fill="#515151"/>
<path d="M1082.93 480.916C1071.01 479.643 1058.73 478.026 1045.93 476.368C1058.06 473.699 1070.49 474.428 1082.93 480.916Z" fill="#565556"/>
<path d="M1035.93 475.392C1022.27 475.634 1008.17 475.732 993.526 475.916C992.972 475.769 992.96 475.536 992.929 474.956C1007.1 474.822 1021.29 475.035 1035.93 475.392Z" fill="#565556"/>
<path d="M1087.93 483.916C1087.25 483.591 1086.25 482.613 1084.93 480.916C1085.61 481.218 1086.6 482.24 1087.93 483.916Z" fill="#565556"/>
<path d="M615.892 414.916C615.546 414.588 615.237 414.252 614.929 413.916C615.196 414.118 615.463 414.321 615.848 414.685C615.967 414.846 615.93 414.907 615.892 414.916Z" fill="#494949"/>
<path d="M407.564 572.916C407.874 601.23 407.842 629.94 407.87 658.649C407.878 667.29 408.378 667.778 416.333 667.771C439.311 667.751 462.288 667.638 485.265 667.746C488.065 667.759 490.861 668.899 493.929 669.916C491.929 669.874 489.662 669.061 487.391 669.051C462.449 668.942 437.507 668.933 412.565 668.969C409.345 668.974 406.894 668.88 406.929 663.976C407.143 633.755 407.161 603.532 407.564 572.916Z" fill="#676767"/>
<path d="M489.929 678.946C480.888 679.199 471.308 679.483 461.723 679.659C453.487 679.811 445.241 679.976 437.006 679.893C417.795 679.7 398.588 679.361 378.929 678.976C415.448 678.891 452.417 678.91 489.929 678.946Z" fill="#5A5A5B"/>
<path d="M475.929 572.916C471.063 573.26 465.644 573.918 460.227 573.916C444.376 573.908 428.525 573.641 412.674 573.46C411.904 573.451 411.138 573.295 409.929 573.114C431.45 572.989 453.414 572.958 475.929 572.916Z" fill="#5A5A5B"/>
<path d="M380.929 480.916C380.715 480.859 380.419 480.162 379.929 478.916C380.105 479.002 380.476 479.638 380.929 480.916Z" fill="#515151"/>
<path d="M758.115 476.284C759.362 476.211 760.61 476.138 762.738 476.038C764.453 475.988 765.287 475.965 766.121 475.941C769.385 475.969 772.649 475.997 776.994 476.009C783.154 475.967 788.232 475.941 793.311 475.916C796.964 475.952 800.617 475.989 805.063 475.991C805.855 475.956 806.351 475.928 806.351 475.928C807.289 475.966 808.227 476.004 810.177 476.023C821.047 476.703 830.906 477.403 840.764 478.103C857.316 481.872 873.192 487.62 886.678 499.568C912.594 522.528 922.591 552.969 919.333 589.441C915.683 630.298 888.892 664.481 845.886 674.131C831.163 677.435 815.85 677.786 800.769 678.559C787.042 679.262 773.264 678.708 758.911 678.708C760.181 674.389 761.208 670.899 762.369 666.326C762.54 661.031 762.61 656.818 762.605 652.606C762.542 597.398 762.469 542.19 762.398 486.982C761.373 484.463 760.348 481.944 759.041 478.733C758.552 477.702 758.275 477.465 757.929 477.333C757.929 477.333 757.992 477.47 758.041 477.155C758.09 476.84 758.115 476.284 758.115 476.284ZM863.197 653.365C863.197 653.365 863.211 653.452 863.801 653.205C864.019 652.821 864.236 652.438 864.391 652.023C864.391 652.023 864.397 652.099 865.111 652.055C865.694 651.61 866.276 651.165 866.768 650.701C866.768 650.701 866.752 650.802 867.33 650.524C867.554 650.141 867.778 649.758 867.937 649.349C867.937 649.349 867.943 649.427 868.583 649.195C868.869 648.814 869.155 648.434 869.997 647.469C874.888 640.291 880.722 633.688 884.492 625.827C895.777 602.296 896.623 576.67 892.305 551.216C887.117 520.633 871.317 499.419 844.489 489.057C828.332 482.817 811.83 484.197 795.334 484.02C785.522 483.915 785.433 483.997 785.429 494.851C785.408 551.276 785.425 607.7 785.489 664.125C785.491 666.269 786.106 668.413 787.525 670.701C798.477 670.596 809.429 670.491 821.371 670.408C828.228 668.814 835.085 667.22 842.719 665.477C843.667 665.007 844.614 664.537 845.478 664.027C845.478 664.027 845.444 664.122 846.159 663.995C846.747 663.571 847.334 663.148 847.844 662.68C847.844 662.68 847.805 662.767 848.617 662.682C849.332 662.264 850.047 661.847 851.095 661.434C851.095 661.434 851.414 661.325 852.077 661.189C852.656 660.807 853.234 660.426 853.75 660.007C853.75 660.007 853.741 660.087 854.418 659.91C855.009 659.511 855.6 659.112 856.122 658.683C856.122 658.683 856.114 658.766 856.682 658.489C856.907 658.118 857.132 657.748 857.29 657.351C857.29 657.351 857.293 657.431 858.019 657.402C858.594 656.956 859.169 656.51 859.675 656.02C859.675 656.02 859.642 656.102 860.339 655.986C860.922 655.562 861.505 655.138 862.029 654.677C862.029 654.677 862.026 654.754 862.568 654.444C862.804 654.083 863.04 653.722 863.197 653.365Z" fill="#111211"/>
<path d="M647.595 475.374C653.794 477.245 660.119 478.732 666.109 481.239C667.737 481.92 669.604 486.021 669.185 487.949C668.211 492.421 665.909 496.525 664.776 499.257C657.647 494.307 650.82 487.526 642.868 484.47C626.251 478.085 609.242 477.909 594.982 491.681C580.73 505.446 582.063 528.375 597.782 539.908C606.595 546.374 616.615 550.739 626.052 556.137C638.631 563.331 651.764 569.56 663.604 578.071C687.142 594.991 692.812 629.795 677.046 655.683C670.142 667.021 659.649 672.806 648.337 676.201C620.417 684.581 593.108 681.497 566.469 669.277C562.946 667.661 560.99 665.691 562.378 660.794C564.093 654.74 565.128 648.441 566.743 640.916C569.716 645.732 571.78 649.588 574.283 653.039C582.926 664.955 595.144 669.875 607.828 671.871C620.401 673.849 633.161 673.6 645.38 667.316C669.704 654.807 673.229 616.375 649.952 601.119C636.093 592.037 621.016 585.333 606.536 577.445C595.041 571.183 583.398 565.194 575.346 553.179C561.455 532.448 564.668 503.57 582.561 487.353C589.438 481.119 597.177 477.432 606.534 474.927C620.823 474.857 634.209 475.116 647.595 475.374Z" fill="#111211"/>
<path d="M762.603 487.916C762.803 542.203 762.87 596.99 762.928 651.777C762.933 655.956 762.868 660.137 762.775 664.916C762.458 662.693 761.983 659.872 761.98 657.05C761.926 603.455 761.919 549.86 761.94 496.266C761.941 493.649 762.284 491.032 762.603 487.916Z" fill="#565556"/>
<path d="M1019.23 663.916C1019.04 643.895 1019.03 623.371 1018.93 602.847C1018.91 599.345 1019.34 596.795 1023.44 596.92C1032.79 597.205 1042.14 597.272 1051.93 597.79C1044.82 598.134 1037.28 598.074 1029.75 598.103C1020.44 598.14 1019.97 598.636 1019.96 608.495C1019.95 623.729 1020.02 638.963 1019.97 654.197C1019.96 657.27 1019.58 660.34 1019.23 663.916Z" fill="#5A5A5B"/>
<path d="M757.929 477.935C758.171 477.833 758.541 478.131 758.929 478.915C758.729 478.928 758.432 478.572 757.929 477.935Z" fill="#515151"/>
<path d="M1349.93 672.916C1350.22 673.514 1350.57 674.509 1350.93 675.916C1350.62 675.322 1350.31 674.317 1349.93 672.916Z" fill="#515151"/>
<path d="M1221.93 673.916C1221.97 673.028 1222.26 671.682 1222.93 669.916C1222.93 670.816 1222.55 672.136 1221.93 673.916Z" fill="#4F4F4F"/>
<path d="M1227.93 655.916C1228.02 655.474 1228.33 654.801 1228.93 653.916C1228.86 654.363 1228.5 655.024 1227.93 655.916Z" fill="#4F4F4F"/>
<path d="M1220.93 675.916C1220.93 675.512 1221.18 674.811 1221.92 673.916C1221.99 674.353 1221.59 674.986 1220.93 675.916Z" fill="#4F4F4F"/>
<path d="M1298.93 483.916C1298.72 483.448 1298.37 482.462 1297.93 480.916C1298.16 481.369 1298.47 482.383 1298.93 483.916Z" fill="#515151"/>
<path d="M1300.93 488.916C1300.46 488.62 1299.74 487.967 1298.93 486.916C1299.45 487.197 1300.07 487.877 1300.93 488.916Z" fill="#515151"/>
<path d="M1301.93 490.916C1301.69 490.609 1301.33 489.949 1300.93 488.916C1301.2 489.215 1301.5 489.889 1301.93 490.916Z" fill="#515151"/>
<path d="M1302.93 494.916C1302.72 494.443 1302.36 493.456 1301.93 491.916C1302.16 492.375 1302.47 493.388 1302.93 494.916Z" fill="#515151"/>
<path d="M1348.93 669.916C1349.16 670.227 1349.51 670.889 1349.93 671.916C1349.68 671.609 1349.37 670.938 1348.93 669.916Z" fill="#515151"/>
<path d="M1224.93 662.916C1225.02 662.553 1225.33 661.877 1225.93 660.916C1225.86 661.288 1225.5 661.945 1224.93 662.916Z" fill="#4F4F4F"/>
<path d="M1223.93 665.916C1223.98 665.362 1224.28 664.347 1224.93 662.916C1224.91 663.484 1224.54 664.469 1223.93 665.916Z" fill="#4F4F4F"/>
<path d="M1054.93 484.169C1046.61 484.54 1037.76 484.909 1028.91 485.16C1021.59 485.368 1020.88 486.049 1020.87 494.312C1020.85 521.908 1020.85 549.503 1020.88 577.098C1020.89 586.031 1021.51 586.725 1029.03 586.768C1036.94 586.813 1044.85 586.811 1053.35 586.815C1043.62 587.24 1033.29 587.806 1022.96 587.915C1021.96 587.926 1020.06 585.108 1020.06 583.593C1019.9 552.069 1020 520.543 1019.93 489.018C1019.92 484.703 1021.77 483.864 1024.96 483.918C1034.77 484.083 1044.59 484.063 1054.93 484.169Z" fill="#5A5A5B"/>
<path d="M1248.93 597.153C1249.55 596.997 1250.11 597.342 1250.66 597.34C1273.27 597.269 1295.87 597.166 1318.93 596.916C1318.61 597.482 1317.84 598.821 1317.06 598.825C1295.02 598.941 1272.97 598.935 1250.93 598.865C1250.24 598.863 1249.55 597.97 1248.93 597.153Z" fill="#5A5A5B"/>
<path d="M841.929 664.916C842.718 664.638 844.053 664.308 845.929 663.916C845.138 664.19 843.806 664.526 841.929 664.916Z" fill="#4B4B4B"/>
<path d="M863.929 651.916C864.21 651.356 864.892 650.76 865.929 649.916C865.633 650.404 864.98 651.142 863.929 651.916Z" fill="#4B4B4B"/>
<path d="M859.929 654.916C860.072 654.657 860.411 654.349 860.929 653.916C860.779 654.148 860.452 654.507 859.929 654.916Z" fill="#4B4B4B"/>
<path d="M858.929 656.916C859.066 656.629 859.407 656.331 859.929 655.916C859.784 656.166 859.459 656.535 858.929 656.916Z" fill="#4B4B4B"/>
<path d="M854.929 659.916C855.226 659.439 855.901 658.807 856.929 657.916C856.624 658.357 855.965 659.059 854.929 659.916Z" fill="#4B4B4B"/>
<path d="M848.929 662.916C849.078 662.375 849.414 661.761 849.929 660.916C849.777 661.404 849.446 662.123 848.929 662.916Z" fill="#4B4B4B"/>
<path d="M867.929 648.916C867.937 648.727 868.293 648.427 868.929 647.916C868.897 648.07 868.587 648.437 867.929 648.916Z" fill="#4B4B4B"/>
<path d="M866.93 649.916C866.907 649.741 867.272 649.436 867.929 648.916C867.919 649.062 867.618 649.423 866.93 649.916Z" fill="#4B4B4B"/>
<path d="M862.933 653.916C862.884 653.526 863.252 652.921 863.929 651.916C863.928 652.222 863.632 652.951 862.933 653.916Z" fill="#4B4B4B"/>
<path d="M856.931 659.916C856.897 659.548 857.261 658.935 857.929 657.916C857.916 658.206 857.615 658.926 856.931 659.916Z" fill="#4B4B4B"/>
</svg>
